<?xml version="1.0" encoding="UTF-8" standalone="no"?>
<svg width="138px" height="146px" viewBox="0 0 138 146" version="1.1" xmlns="http://www.w3.org/2000/svg" xmlns:xlink="http://www.w3.org/1999/xlink">
    <!-- Generator: Sketch 3.6.1 (26313) - http://www.bohemiancoding.com/sketch -->
    <title>logo</title>
    <desc>Created with Sketch.</desc>
    <defs></defs>
    <g id="Welcome" stroke="none" stroke-width="1" fill="none" fill-rule="evenodd">
        <g id="logo-m" transform="translate(-645.000000, -78.000000)" fill="#0AC2D2">
            <g id="logo" transform="translate(714.000000, 151.000000) rotate(90.000000) translate(-714.000000, -151.000000) translate(641.000000, 82.000000)">
                <path d="M102.086636,0.670368241 C108.036278,0.670368241 113.623053,1.79519833 118.847129,4.04489224 C124.071205,6.29458615 128.642202,9.34251283 132.560259,13.1887637 C136.478316,17.0350146 139.598203,21.5706198 141.920015,26.7957153 C144.241826,32.0208109 145.402715,37.6086764 145.402715,43.5594797 L145.402715,137.82844 L117.541117,137.82844 L117.541117,41.8177899 C116.960664,38.0441098 115.219331,34.8510437 112.317067,32.238496 C109.414803,29.6259482 106.004693,28.3196939 102.086636,28.3196939 C98.0234664,28.3196939 94.5408015,29.662233 91.6385372,32.3473516 C88.7362729,35.0324701 87.0674959,38.3343907 86.6321563,42.2532123 L86.6321563,137.82844 L58.7705583,137.82844 L58.7705583,43.7771909 C58.7705583,39.5680862 57.2468924,35.939602 54.1995149,32.8916296 C51.1521373,29.8436572 47.5243614,28.3196939 43.3160781,28.3196939 C39.3980213,28.3196939 36.0241897,29.5533785 33.194482,32.0207847 C30.3647743,34.488191 28.5871641,37.6086873 27.861598,41.3823674 L27.861598,137.82844 L0,137.82844 L0,43.5594797 C0,37.6086764 1.16088831,32.0208109 3.48269975,26.7957153 C5.80451119,21.5706198 8.92439852,17.0350146 12.8424553,13.1887637 C16.7605121,9.34251283 21.3315098,6.29458615 26.5555856,4.04489224 C31.7796613,1.79519833 37.3664363,0.670368241 43.3160781,0.670368241 C48.9754935,0.670368241 54.3446019,1.6863438 59.4235645,3.7183254 C64.502527,5.750307 68.9284137,8.58052463 72.7013573,12.2090632 C76.6194141,8.58052463 81.0815785,5.750307 86.0879844,3.7183254 C91.0943904,1.6863438 96.427221,0.670368241 102.086636,0.670368241 L102.086636,0.670368241 Z" id="MC"></path>
            </g>
        </g>
    </g>
</svg>