<?xml version="1.0" encoding="UTF-8" standalone="no"?>
<svg width="395px" height="234px" viewBox="0 0 395 234" version="1.1" xmlns="http://www.w3.org/2000/svg" xmlns:xlink="http://www.w3.org/1999/xlink">
    <!-- Generator: Sketch 3.6.1 (26313) - http://www.bohemiancoding.com/sketch -->
    <title>logo</title>
    <desc>Created with Sketch.</desc>
    <defs></defs>
    <g id="Welcome" stroke="none" stroke-width="1" fill="none" fill-rule="evenodd">
        <g id="logo" transform="translate(-467.000000, -92.000000)">
            <g transform="translate(467.000000, 28.000000)">
                <path d="M121.124415,134.856243 C128.183584,134.856243 134.812217,136.190719 141.010512,138.859711 C147.208808,141.528703 152.632235,145.144702 157.280956,149.707816 C161.929678,154.270931 165.631382,159.651882 168.38618,165.850831 C171.140978,172.049779 172.518356,178.679111 172.518356,185.739024 L172.518356,297.577827 L139.460946,297.577827 L139.460946,183.672718 C138.772247,179.1957 136.706179,175.407511 133.262682,172.308036 C129.819185,169.208562 125.773136,167.658848 121.124415,167.658848 C116.303518,167.658848 112.171383,169.25161 108.727886,172.437181 C105.284389,175.622751 103.304407,179.540084 102.787883,184.189295 L102.787883,297.577827 L69.7304732,297.577827 L69.7304732,185.997313 C69.7304732,181.003715 67.9226642,176.698954 64.3069919,173.082901 C60.6913197,169.466848 56.3870125,167.658848 51.3939414,167.658848 C46.7452199,167.658848 42.7422142,169.122467 39.3848043,172.049748 C36.0273944,174.977029 33.9182839,178.679124 33.0574095,183.156142 L33.0574095,297.577827 L0,297.577827 L0,185.739024 C0,178.679111 1.37737829,172.049779 4.13217619,165.850831 C6.88697409,159.651882 10.5886782,154.270931 15.2373997,149.707816 C19.8861212,145.144702 25.3095482,141.528703 31.5078434,138.859711 C37.7061387,136.190719 44.3347717,134.856243 51.3939414,134.856243 C58.1087612,134.856243 64.4791358,136.061576 70.5052562,138.472279 C76.5313766,140.882981 81.7826314,144.240694 86.259178,148.545519 C90.9078994,144.240694 96.2021972,140.882981 102.14223,138.472279 C108.082263,136.061576 114.409595,134.856243 121.124415,134.856243 L121.124415,134.856243 Z M267.041886,264.775222 C277.716728,264.775222 287.143161,261.718842 295.321467,255.60599 C303.499773,249.493138 309.310588,241.787616 312.754085,232.489194 L343.487146,243.337299 C340.732348,251.258178 336.858471,258.533223 331.8654,265.162654 C326.872329,271.792085 321.018471,277.517417 314.303651,282.338822 C307.588832,287.160226 300.185423,290.905368 292.093204,293.57436 C284.000986,296.243351 275.564544,297.577827 266.783625,297.577827 C255.592259,297.577827 245.046706,295.468494 235.146651,291.249766 C225.246596,287.031037 216.594939,281.21961 209.19142,273.81531 C201.7879,266.411011 195.977086,257.758441 191.758801,247.857343 C187.540517,237.956245 185.431406,227.409581 185.431406,216.217035 C185.431406,205.024489 187.540517,194.477826 191.758801,184.576727 C195.977086,174.675629 201.7879,166.066107 209.19142,158.747904 C216.594939,151.429701 225.246596,145.618274 235.146651,141.313449 C245.046706,137.008624 255.592259,134.856243 266.783625,134.856243 C275.564544,134.856243 283.871856,136.147672 291.705813,138.730567 C299.539769,141.313462 306.771005,144.929461 313.399738,149.578672 C320.02847,154.227884 325.839285,159.737977 330.832356,166.109119 C335.825427,172.48026 339.78539,179.540068 342.712363,187.288754 L312.237563,198.395147 C308.794066,189.268918 302.983251,181.864729 294.804945,176.18236 C286.626639,170.49999 277.372378,167.658848 267.041886,167.658848 C260.327066,167.658848 254.042778,168.950277 248.188832,171.533172 C242.334887,174.116067 237.212761,177.602923 232.822302,181.993845 C228.431843,186.384767 224.988397,191.507432 222.491862,197.361995 C219.995326,203.216557 218.747077,209.501508 218.747077,216.217035 C218.747077,222.932563 219.995326,229.217513 222.491862,235.072076 C224.988397,240.926638 228.431843,246.049304 232.822302,250.440225 C237.212761,254.831147 242.334887,258.318004 248.188832,260.900899 C254.042778,263.483794 260.327066,264.775222 267.041886,264.775222 L267.041886,264.775222 Z" id="MC" fill="#0AC2D2"></path>
                <g id="bar" transform="translate(292.849394, 108.063760) rotate(-13.000000) translate(-292.849394, -108.063760) translate(179.349394, 23.563760)" fill="#FFFFFF">
                    <g id="strength" transform="translate(113.260795, 84.570490) rotate(27.000000) translate(-113.260795, -84.570490) translate(7.260795, 44.070490)">
                        <g id="Capa_1" transform="translate(0.000000, -0.000000)">
                            <path d="M29.1924065,67.2095915 L44.5357415,80.4861305 C60.2026401,63.9679945 82.5606172,54.5136079 105.911129,54.5136079 C129.241845,54.5136079 151.599822,63.9679945 167.268086,80.4470359 L182.591625,67.1704969 C162.998957,46.5617585 135.058483,34.7538748 105.911129,34.7538748 C76.7392015,34.7532232 48.7802962,46.6008532 29.1924065,67.2095915 L29.1924065,67.2095915 Z M4.97379915e-14,43.9073225 L15.120117,57.3956241 C38.5293347,33.4846921 71.6243014,19.7650805 105.910447,19.7650805 C140.703781,19.7650805 172.92499,33.1198088 196.659819,57.3558779 L211.782666,43.8467258 C184.489319,15.9852806 145.895818,0.00665058206 105.909764,0.00665058206 C65.9025488,0.00665058206 27.3110953,16.0035248 4.97379915e-14,43.9073225 L4.97379915e-14,43.9073225 Z" id="Shape"></path>
                        </g>
                    </g>
                </g>
            </g>
        </g>
    </g>
</svg>
